# xmcd
#
# Track frame offsets: 
#        150
#        26542
#        45082
#        63042
#        110612
#        128112
#        150060
#        170960
#        206807
#        223540
#        235400
#        262332
#        304842
#
# Disc length: 4306 seconds
#
# Revision: 8
# Processed by: cddbd v1.5.2PL0 Copyright (c) Steve Scherf et al.
# Submitted via: ExactAudioCopy v0.99pb4
#
DISCID=b210d00d
DTITLE=Various Artist - Alligator Records - 30th Anniversary Collecti
DTITLE=on (Disk 2 of 2) - On the Stage
DYEAR=2001
DGENRE=Blues
TTITLE0=Lonnie Brooks - Two Headed Man
TTITLE1=Luther Allison - Soul Fixin' Man
TTITLE2=C. J. Chenier and the Red Hot Louisiana Band - Jambalaya (On the
TTITLE2=Bayou)
TTITLE3=Albert Collins and the Ice Breakers - Dyin' Flu
TTITLE4=James Cotton - When It Rains It Pours
TTITLE5=Elvin Bishop - Slow Down
TTITLE6=Saffire - the Uppity Blues Women - You Can Have My Husband
TTITLE7=Little Charlie and the Nightcats - I'll Take You Back
TTITLE8=Delbert McClinton - Maybe Someday Baby
TTITLE9=Lil' Ed and the Blues Imperials - Chicken, Gravy and Biscuits
TTITLE10=Son Seals with Elvin Bishop - Sadie
TTITLE11=Lonnie Mack - Stop
TTITLE12=Hound Dog Taylor and The HouseRockers - It's Alright
EXTD=LABEL =Alligator Records and Artist Mgmt., Inc.\nID =ALCD112/13\n
EXTD=UPC =014551-1213-29\nCOPYRIGHT =2001\n*****\nTrack 13 is listed
EXTD=on the cover, but is not on the cd.\n- listing =Hound Dog Taylo
EXTD=r and the Houserockers - It's Alright\n*****\nbonus cd video track 
EXTD==Hound Dog Taylor and the Houserockers - Taylor's Rock
EXTT0=
EXTT1=
EXTT2=
EXTT3=
EXTT4=
EXTT5=
EXTT6=
EXTT7=
EXTT8=
EXTT9=
EXTT10=
EXTT11=
EXTT12=
PLAYORDER=
